  0
SECTION
  2
HEADER
  9
$ACADVER
  1
AC1015
  9
$ACADMAINTVER
 70
     6
  9
$DWGCODEPAGE
  3
ANSI_1252
  9
$INSBASE
 10
0.0
 20
0.0
 30
0.0
  9
$EXTMIN
 10
-45.0
 20
-25.9763576429
 30
0.0
  9
$EXTMAX
 10
45.0
 20
31.1613917984
 30
0.0
  9
$LIMMIN
 10
0.0
 20
0.0
  9
$LIMMAX
 10
420.0
 20
297.0
  9
$ORTHOMODE
 70
     0
  9
$REGENMODE
 70
     1
  9
$FILLMODE
 70
     1
  9
$QTEXTMODE
 70
     0
  9
$MIRRTEXT
 70
     1
  9
$LTSCALE
 40
1.0
  9
$ATTMODE
 70
     1
  9
$TEXTSIZE
 40
3.175
  9
$TRACEWID
 40
1.0
  9
$TEXTSTYLE
  7
Standard
  9
$CLAYER
  8
0
  9
$CELTYPE
  6
ByLayer
  9
$CECOLOR
 62
   256
  9
$CELTSCALE
 40
1.0
  9
$DISPSILH
 70
     0
  9
$DIMSCALE
 40
1.0
  9
$DIMASZ
 40
3.302
  9
$DIMEXO
 40
1.27
  9
$DIMDLI
 40
3.75
  9
$DIMRND
 40
0.0
  9
$DIMDLE
 40
0.0
  9
$DIMEXE
 40
3.175
  9
$DIMTP
 40
0.0
  9
$DIMTM
 40
0.0
  9
$DIMTXT
 40
3.175
  9
$DIMCEN
 40
2.5
  9
$DIMTSZ
 40
0.0
  9
$DIMTOL
 70
     0
  9
$DIMLIM
 70
     0
  9
$DIMTIH
 70
     1
  9
$DIMTOH
 70
     1
  9
$DIMSE1
 70
     0
  9
$DIMSE2
 70
     0
  9
$DIMTAD
 70
     0
  9
$DIMZIN
 70
     1
  9
$DIMBLK
  1

  9
$DIMASO
 70
     1
  9
$DIMSHO
 70
     1
  9
$DIMPOST
  1

  9
$DIMAPOST
  1

  9
$DIMALT
 70
     0
  9
$DIMALTD
 70
     3
  9
$DIMALTF
 40
0.0393700787
  9
$DIMLFAC
 40
1.0
  9
$DIMTOFL
 70
     1
  9
$DIMTVP
 40
0.0
  9
$DIMTIX
 70
     0
  9
$DIMSOXD
 70
     0
  9
$DIMSAH
 70
     0
  9
$DIMBLK1
  1

  9
$DIMBLK2
  1

  9
$DIMSTYLE
  2
ISO-25
  9
$DIMCLRD
 70
     0
  9
$DIMCLRE
 70
     0
  9
$DIMCLRT
 70
     0
  9
$DIMTFAC
 40
1.0
  9
$DIMGAP
 40
1.524
  9
$DIMJUST
 70
     0
  9
$DIMSD1
 70
     0
  9
$DIMSD2
 70
     0
  9
$DIMTOLJ
 70
     0
  9
$DIMTZIN
 70
     1
  9
$DIMALTZ
 70
     0
  9
$DIMALTTZ
 70
     0
  9
$DIMUPT
 70
     0
  9
$DIMDEC
 70
     2
  9
$DIMTDEC
 70
     2
  9
$DIMALTU
 70
     2
  9
$DIMALTTD
 70
     3
  9
$DIMTXSTY
  7
Standard
  9
$DIMAUNIT
 70
     0
  9
$DIMADEC
 70
     2
  9
$DIMALTRND
 40
0.0
  9
$DIMAZIN
 70
     0
  9
$DIMDSEP
 70
    44
  9
$DIMATFIT
 70
     3
  9
$DIMFRAC
 70
     0
  9
$DIMLDRBLK
  1

  9
$DIMLUNIT
 70
     2
  9
$DIMLWD
 70
    -2
  9
$DIMLWE
 70
    -2
  9
$DIMTMOVE
 70
     0
  9
$LUNITS
 70
     2
  9
$LUPREC
 70
     2
  9
$SKETCHINC
 40
1.0
  9
$FILLETRAD
 40
10.0
  9
$AUNITS
 70
     0
  9
$AUPREC
 70
     2
  9
$MENU
  1
.
  9
$ELEVATION
 40
0.0
  9
$PELEVATION
 40
0.0
  9
$THICKNESS
 40
0.0
  9
$LIMCHECK
 70
     0
  9
$CHAMFERA
 40
0.0
  9
$CHAMFERB
 40
0.0
  9
$CHAMFERC
 40
0.0
  9
$CHAMFERD
 40
0.0
  9
$SKPOLY
 70
     0
  9
$TDCREATE
 40
2458591.489763866
  9
$TDUCREATE
 40
2458591.698097199
  9
$TDUPDATE
 40
2458591.489825347
  9
$TDUUPDATE
 40
2458591.69815868
  9
$TDINDWG
 40
0.0000000116
  9
$TDUSRTIMER
 40
0.0000000116
  9
$USRTIMER
 70
     1
  9
$ANGBASE
 50
0.0
  9
$ANGDIR
 70
     0
  9
$PDMODE
 70
     0
  9
$PDSIZE
 40
-1.0
  9
$PLINEWID
 40
0.0
  9
$SPLFRAME
 70
     0
  9
$SPLINETYPE
 70
     6
  9
$SPLINESEGS
 70
     8
  9
$HANDSEED
  5
8F
  9
$SURFTAB1
 70
     6
  9
$SURFTAB2
 70
     6
  9
$SURFTYPE
 70
     6
  9
$SURFU
 70
     6
  9
$SURFV
 70
     6
  9
$UCSBASE
  2

  9
$UCSNAME
  2

  9
$UCSORG
 10
0.0
 20
0.0
 30
0.0
  9
$UCSXDIR
 10
1.0
 20
0.0
 30
0.0
  9
$UCSYDIR
 10
0.0
 20
1.0
 30
0.0
  9
$UCSORTHOREF
  2

  9
$UCSORTHOVIEW
 70
     0
  9
$UCSORGTOP
 10
0.0
 20
0.0
 30
0.0
  9
$UCSORGBOTTOM
 10
0.0
 20
0.0
 30
0.0
  9
$UCSORGLEFT
 10
0.0
 20
0.0
 30
0.0
  9
$UCSORGRIGHT
 10
0.0
 20
0.0
 30
0.0
  9
$UCSORGFRONT
 10
0.0
 20
0.0
 30
0.0
  9
$UCSORGBACK
 10
0.0
 20
0.0
 30
0.0
  9
$PUCSBASE
  2

  9
$PUCSNAME
  2

  9
$PUCSORG
 10
0.0
 20
0.0
 30
0.0
  9
$PUCSXDIR
 10
1.0
 20
0.0
 30
0.0
  9
$PUCSYDIR
 10
0.0
 20
1.0
 30
0.0
  9
$PUCSORTHOREF
  2

  9
$PUCSORTHOVIEW
 70
     0
  9
$PUCSORGTOP
 10
0.0
 20
0.0
 30
0.0
  9
$PUCSORGBOTTOM
 10
0.0
 20
0.0
 30
0.0
  9
$PUCSORGLEFT
 10
0.0
 20
0.0
 30
0.0
  9
$PUCSORGRIGHT
 10
0.0
 20
0.0
 30
0.0
  9
$PUCSORGFRONT
 10
0.0
 20
0.0
 30
0.0
  9
$PUCSORGBACK
 10
0.0
 20
0.0
 30
0.0
  9
$USERI1
 70
     0
  9
$USERI2
 70
     0
  9
$USERI3
 70
     0
  9
$USERI4
 70
     0
  9
$USERI5
 70
     0
  9
$USERR1
 40
0.0
  9
$USERR2
 40
0.0
  9
$USERR3
 40
0.0
  9
$USERR4
 40
0.0
  9
$USERR5
 40
0.0
  9
$WORLDVIEW
 70
     1
  9
$SHADEDGE
 70
     3
  9
$SHADEDIF
 70
    70
  9
$TILEMODE
 70
     1
  9
$MAXACTVP
 70
    64
  9
$PINSBASE
 10
0.0
 20
0.0
 30
0.0
  9
$PLIMCHECK
 70
     0
  9
$PEXTMIN
 10
-45.0
 20
-45.0
 30
0.0
  9
$PEXTMAX
 10
45.0
 20
45.0
 30
0.0
  9
$PLIMMIN
 10
-54.2307692308
 20
-48.4615384615
  9
$PLIMMAX
 10
82.8461538462
 20
48.4615384615
  9
$UNITMODE
 70
     0
  9
$VISRETAIN
 70
     1
  9
$PLINEGEN
 70
     0
  9
$PSLTSCALE
 70
     1
  9
$TREEDEPTH
 70
  3020
  9
$CMLSTYLE
  2
Standard
  9
$CMLJUST
 70
     0
  9
$CMLSCALE
 40
20.0
  9
$PROXYGRAPHICS
 70
     1
  9
$MEASUREMENT
 70
     1
  9
$CELWEIGHT
370
    -1
  9
$ENDCAPS
280
     0
  9
$JOINSTYLE
280
     0
  9
$LWDISPLAY
290
     1
  9
$INSUNITS
 70
     4
  9
$HYPERLINKBASE
  1

  9
$STYLESHEET
  1

  9
$XEDIT
290
     1
  9
$CEPSNTYPE
380
     0
  9
$PSTYLEMODE
290
     1
  9
$FINGERPRINTGUID
  2
{D7254104-9BD5-4700-8D37-9B3C237F8F69}
  9
$VERSIONGUID
  2
{FAEB1C32-E019-11D5-929B-00C0DF256EC4}
  9
$EXTNAMES
290
     1
  9
$PSVPSCALE
 40
0.0
  9
$OLESTARTUP
290
     0
  0
ENDSEC
  0
SECTION
  2
CLASSES
  0
CLASS
  1
ACDBDICTIONARYWDFLT
  2
AcDbDictionaryWithDefault
  3
ObjectDBX Classes
 90
        0
280
     0
281
     0
  0
CLASS
  1
VISUALSTYLE
  2
AcDbVisualStyle
  3
ObjectDBX Classes
 90
     4095
280
     0
281
     0
  0
CLASS
  1
MATERIAL
  2
AcDbMaterial
  3
ObjectDBX Classes
 90
     1153
280
     0
281
     0
  0
CLASS
  1
SCALE
  2
AcDbScale
  3
ObjectDBX Classes
 90
     1153
280
     0
281
     0
  0
CLASS
  1
TABLESTYLE
  2
AcDbTableStyle
  3
ObjectDBX Classes
 90
     4095
280
     0
281
     0
  0
CLASS
  1
MLEADERSTYLE
  2
AcDbMLeaderStyle
  3
ACDB_MLEADERSTYLE_CLASS
 90
     4095
280
     0
281
     0
  0
CLASS
  1
SUN
  2
AcDbSun
  3
SCENEOE
 90
     1153
280
     0
281
     0
  0
CLASS
  1
ACDBPLACEHOLDER
  2
AcDbPlaceHolder
  3
ObjectDBX Classes
 90
        0
280
     0
281
     0
  0
CLASS
  1
LAYOUT
  2
AcDbLayout
  3
ObjectDBX Classes
 90
        0
280
     0
281
     0
  0
ENDSEC
  0
SECTION
  2
TABLES
  0
TABLE
  2
VPORT
  5
8
330
0
100
AcDbSymbolTable
 70
     1
  0
VPORT
  5
29
330
8
100
AcDbSymbolTableRecord
100
AcDbViewportTableRecord
  2
*Active
 70
     0
 10
0.0
 20
0.0
 11
1.0
 21
1.0
 12
0.0
 22
2.5925170777
 13
0.0
 23
0.0
 14
10.0
 24
10.0
 15
10.0
 25
10.0
 16
0.0
 26
0.0
 36
1.0
 17
0.0
 27
0.0
 37
0.0
 40
58.2805044301
 41
1.5751407936
 42
50.0
 43
0.0
 44
0.0
 50
0.0
 51
0.0
 71
     0
 72
   100
 73
     1
 74
     3
 75
     0
 76
     0
 77
     0
 78
     0
281
     0
 65
     1
110
0.0
120
0.0
130
0.0
111
1.0
121
0.0
131
0.0
112
0.0
122
1.0
132
0.0
 79
     0
146
0.0
  0
ENDTAB
  0
TABLE
  2
LTYPE
  5
5
330
0
100
AcDbSymbolTable
 70
     6
  0
LTYPE
  5
14
330
5
100
AcDbSymbolTableRecord
100
AcDbLinetypeTableRecord
  2
ByBlock
 70
     0
  3

 72
    65
 73
     0
 40
0.0
  0
LTYPE
  5
15
330
5
100
AcDbSymbolTableRecord
100
AcDbLinetypeTableRecord
  2
ByLayer
 70
     0
  3

 72
    65
 73
     0
 40
0.0
  0
LTYPE
  5
16
330
5
100
AcDbSymbolTableRecord
100
AcDbLinetypeTableRecord
  2
Continuous
 70
     0
  3
Solid line
 72
    65
 73
     0
 40
0.0
  0
LTYPE
  5
6E
330
5
100
AcDbSymbolTableRecord
100
AcDbLinetypeTableRecord
  2
HIDDEN
 70
     0
  3
Hidden __ __ __ __ __ __ __ __ __ __ __ __ __ __
 72
    65
 73
     2
 40
1.905
 49
1.27
 74
     0
 49
-0.635
 74
     0
  0
LTYPE
  5
6F
330
5
100
AcDbSymbolTableRecord
100
AcDbLinetypeTableRecord
  2
PHANTOM
 70
     0
  3
Phantom ______  __  __  ______  __  __  ______
 72
    65
 73
     6
 40
12.7
 49
6.35
 74
     0
 49
-1.27
 74
     0
 49
1.27
 74
     0
 49
-1.27
 74
     0
 49
1.27
 74
     0
 49
-1.27
 74
     0
  0
LTYPE
  5
70
330
5
100
AcDbSymbolTableRecord
100
AcDbLinetypeTableRecord
  2
CENTER
 70
     0
  3
Center ____ _ ____ _ ____ _ ____ _ ____ _ ____
 72
    65
 73
     4
 40
10.16
 49
6.35
 74
     0
 49
-1.27
 74
     0
 49
1.27
 74
     0
 49
-1.27
 74
     0
  0
LTYPE
  5
71
330
5
100
AcDbSymbolTableRecord
100
AcDbLinetypeTableRecord
  2
CENTERX2
 70
     0
  3
Center (2x) ________  __  ________  __  _____
 72
    65
 73
     4
 40
20.32
 49
12.7
 74
     0
 49
-2.54
 74
     0
 49
2.54
 74
     0
 49
-2.54
 74
     0
  0
LTYPE
  5
72
330
5
100
AcDbSymbolTableRecord
100
AcDbLinetypeTableRecord
  2
DOT2
 70
     0
  3
Dot (.5x) ........................................
 72
    65
 73
     2
 40
0.635
 49
0.0
 74
     0
 49
-0.635
 74
     0
  0
ENDTAB
  0
TABLE
  2
LAYER
  5
2
330
0
100
AcDbSymbolTable
 70
     1
  0
LAYER
  5
10
330
2
100
AcDbSymbolTableRecord
100
AcDbLayerTableRecord
  2
0
 70
     0
 62
     7
  6
Continuous
370
    -3
390
F
  0
ENDTAB
  0
TABLE
  2
STYLE
  5
3
330
0
100
AcDbSymbolTable
 70
     2
  0
STYLE
  5
11
330
3
100
AcDbSymbolTableRecord
100
AcDbTextStyleTableRecord
  2
Standard
 70
     0
 40
0.0
 41
1.0
 50
0.0
 71
     0
 42
3.175
  3
txt
  4

  0
STYLE
  5
8A
330
3
100
AcDbSymbolTableRecord
100
AcDbTextStyleTableRecord
  2
SLDTEXTSTYLE0
 70
     0
 40
0.0
 41
0.7
 50
0.0
 71
     0
 42
3.175
  3
TXT
  4

  0
ENDTAB
  0
TABLE
  2
VIEW
  5
6
330
0
100
AcDbSymbolTable
 70
     0
  0
ENDTAB
  0
TABLE
  2
UCS
  5
7
330
0
100
AcDbSymbolTable
 70
     0
  0
ENDTAB
  0
TABLE
  2
APPID
  5
9
330
0
100
AcDbSymbolTable
 70
     1
  0
APPID
  5
12
330
9
100
AcDbSymbolTableRecord
100
AcDbRegAppTableRecord
  2
ACAD
 70
     0
  0
ENDTAB
  0
TABLE
  2
DIMSTYLE
  5
A
330
0
100
AcDbSymbolTable
 70
     1
100
AcDbDimStyleTable
  0
DIMSTYLE
105
27
330
A
100
AcDbSymbolTableRecord
100
AcDbDimStyleTableRecord
  2
ISO-25
 70
     0
 41
2.5
 42
0.625
 43
3.75
 44
1.25
 73
     0
 74
     0
 77
     1
 78
     8
140
2.5
141
2.5
143
0.0393700787
147
0.625
171
     3
172
     1
178
     0
271
     2
272
     2
274
     3
278
    44
283
     0
284
     8
340
11
  0
ENDTAB
  0
TABLE
  2
BLOCK_RECORD
  5
1
330
0
100
AcDbSymbolTable
 70
     1
  0
BLOCK_RECORD
  5
1F
330
1
100
AcDbSymbolTableRecord
100
AcDbBlockTableRecord
  2
*Model_Space
340
22
  0
BLOCK_RECORD
  5
1B
330
1
100
AcDbSymbolTableRecord
100
AcDbBlockTableRecord
  2
*Paper_Space
340
1E
  0
BLOCK_RECORD
  5
23
330
1
100
AcDbSymbolTableRecord
100
AcDbBlockTableRecord
  2
*Paper_Space0
340
26
  0
ENDTAB
  0
ENDSEC
  0
SECTION
  2
BLOCKS
  0
BLOCK
  5
20
330
1F
100
AcDbEntity
  8
0
100
AcDbBlockBegin
  2
*Model_Space
 70
     0
 10
0.0
 20
0.0
 30
0.0
  3
*Model_Space
  1

  0
ENDBLK
  5
21
330
1F
100
AcDbEntity
  8
0
100
AcDbBlockEnd
  0
BLOCK
  5
1C
330
1B
100
AcDbEntity
 67
     1
  8
0
100
AcDbBlockBegin
  2
*Paper_Space
 70
     0
 10
0.0
 20
0.0
 30
0.0
  3
*Paper_Space
  1

  0
ENDBLK
  5
1D
330
1B
100
AcDbEntity
 67
     1
  8
0
100
AcDbBlockEnd
  0
BLOCK
  5
24
330
23
100
AcDbEntity
  8
0
100
AcDbBlockBegin
  2
*Paper_Space0
 70
     0
 10
0.0
 20
0.0
 30
0.0
  3
*Paper_Space0
  1

  0
ENDBLK
  5
25
330
23
100
AcDbEntity
  8
0
100
AcDbBlockEnd
  0
ENDSEC
  0
SECTION
  2
ENTITIES
  0
LWPOLYLINE
  5
75
330
1F
100
AcDbEntity
  8
0
  6
Continuous
 62
     7
370
    25
100
AcDbPolyline
 90
       76
 70
   128
 43
0.0
 10
-30.5721658563
 20
3.4442771804
 10
-29.8015521881
 20
3.0352021059
 10
-28.9743457458
 20
2.6647871261
 10
-28.0963487884
 20
2.335630436
 10
-27.1737198337
 20
2.0500408332
 10
-26.2129304608
 20
1.8100215235
 10
-25.220719917
 20
1.6172560701
 10
-24.2040478462
 20
1.473096584
 10
-23.1700454727
 20
1.3785542405
 10
-22.12596558
 20
1.3342921862
 10
-21.0791316385
 20
1.3406208875
 10
-20.0368864361
 20
1.3974959533
 10
-19.006540574
 20
1.5045184457
 10
-17.9953211883
 20
1.6609376789
 10
-17.0103212563
 20
1.8656564844
 10
-16.0584498448
 20
2.1172389068
 10
-15.1463836478
 20
2.4139202761
 10
-14.2805201544
 20
2.7536195858
 10
-13.466932775
 20
3.1339540893
 10
-12.7113282403
 20
3.5522560133
 10
-12.0190065733
 20
4.0055912703
 10
-11.3948239131
 20
4.4907800393
 10
-10.8431584525
 20
5.0044190695
 10
-10.3678797284
 20
5.5429055524
 10
-9.9723214796
 20
6.1024623921
 10
-9.6592582629
 20
6.6791646994
 10
-9.4308859919
 20
7.268967322
 10
-9.288806534
 20
7.8677332182
 10
-9.2340164744
 20
8.4712624756
 10
-9.2669001262
 20
9.07532177
 10
-9.3872268341
 20
9.6756740595
 10
-9.5941525926
 20
10.268108304
 10
-9.8862259664
 20
10.8484690032
 10
-10.2613982705
 20
11.4126853436
 10
-10.7170379407
 20
11.956799753
 10
-11.2499489922
 20
12.4769956597
 10
-11.8563934368
 20
12.9696242633
 10
-12.5321175025
 20
13.4312301281
 10
-13.2723814705
 20
13.8585754205
 10
-14.0719929208
 20
14.2486626204
 10
-14.9253431538
 20
14.5987555463
 10
-15.8264465306
 20
14.906398548
 10
-16.7689824586
 20
15.1694337307
 10
-17.7463397253
 20
15.3860160918
 10
-18.7516628718
 20
15.5546264615
 10
-19.7779002785
 20
15.6740821592
 10
-20.8178536274
 20
15.7435452891
 10
-21.864228393
 20
15.7625286172
 10
-22.909685008
 20
15.7308989891
 10
-23.9468903455
 20
15.6488782639
 10
-24.9685691553
 20
15.5170417581
 10
-25.9675550946
 20
15.33631421
 10
-26.9368409948
 20
15.1079632935
 10
-27.8696280117
 20
14.8335907263
 10
-28.7593733147
 20
14.5151210347
 10
-29.5998359796
 20
14.1547880549
 10
-30.3851207649
 20
13.7551192637
 10
-31.1097194619
 20
13.3189180506
 10
-31.7685495314
 20
12.8492440537
 10
-32.3569897538
 20
12.3493916987
 10
-32.8709126439
 20
11.8228670906
 10
-33.3067134016
 20
11.2733634212
 10
-33.661335198
 20
10.7047350641
 10
-33.9322906157
 20
10.1209705384
 10
-34.1176790974
 20
9.5261645331
 10
-34.2162002759
 20
8.9244891848
 10
-34.2271630961
 20
8.3201648137
 10
-34.1504906615
 20
7.7174303213
 10
-33.9867207743
 20
7.1205134567
 10
-33.7370021625
 20
6.5336011631
 10
-33.4030864227
 20
5.9608102083
 10
-32.987315734
 20
5.4061583095
 10
-32.4926064291
 20
4.8735359511
 10
-31.9224285381
 20
4.3666790963
 10
-31.2807814494
 20
3.8891429819
 10
-30.5721658563
 20
3.4442771804
  0
LWPOLYLINE
  5
76
330
1F
100
AcDbEntity
  8
0
  6
Continuous
 62
     7
370
    25
100
AcDbPolyline
 90
       76
 70
   128
 43
0.0
 10
7.0710678119
 20
9.2670747146
 10
7.8416814801
 20
8.8579996401
 10
8.6688879224
 20
8.4875846603
 10
9.5468848798
 20
8.1584279702
 10
10.4695138345
 20
7.8728383673
 10
11.4303032074
 20
7.6328190577
 10
12.4225137512
 20
7.4400536043
 10
13.439185822
 20
7.2958941182
 10
14.4731881955
 20
7.2013517747
 10
15.5172680882
 20
7.1570897204
 10
16.5641020297
 20
7.1634184217
 10
17.6063472321
 20
7.2202934875
 10
18.6366930942
 20
7.3273159799
 10
19.6479124799
 20
7.4837352131
 10
20.6329124119
 20
7.6884540186
 10
21.5847838234
 20
7.940036441
 10
22.4968500204
 20
8.2367178103
 10
23.3627135138
 20
8.57641712
 10
24.1763008932
 20
8.9567516235
 10
24.9319054279
 20
9.3750535475
 10
25.6242270949
 20
9.8283888045
 10
26.2484097551
 20
10.3135775735
 10
26.8000752157
 20
10.8272166037
 10
27.2753539398
 20
11.3657030866
 10
27.6709121886
 20
11.9252599263
 10
27.9839754053
 20
12.5019622336
 10
28.2123476763
 20
13.0917648562
 10
28.3544271342
 20
13.6905307524
 10
28.4092171938
 20
14.2940600098
 10
28.376333542
 20
14.8981193042
 10
28.2560068341
 20
15.4984715937
 10
28.0490810756
 20
16.0909058382
 10
27.7570077018
 20
16.6712665374
 10
27.3818353977
 20
17.2354828778
 10
26.9261957275
 20
17.7795972872
 10
26.393284676
 20
18.2997931939
 10
25.7868402314
 20
18.7924217975
 10
25.1111161657
 20
19.2540276623
 10
24.3708521977
 20
19.6813729547
 10
23.5712407474
 20
20.0714601546
 10
22.7178905144
 20
20.4215530805
 10
21.8167871376
 20
20.7291960822
 10
20.8742512096
 20
20.9922312649
 10
19.8968939429
 20
21.208813626
 10
18.8915707964
 20
21.3774239957
 10
17.8653333897
 20
21.4968796934
 10
16.8253800408
 20
21.5663428233
 10
15.7790052752
 20
21.5853261514
 10
14.7335486602
 20
21.5536965233
 10
13.6963433227
 20
21.4716757981
 10
12.6746645129
 20
21.3398392923
 10
11.6756785736
 20
21.1591117442
 10
10.7063926734
 20
20.9307608277
 10
9.7736056565
 20
20.6563882605
 10
8.8838603535
 20
20.3379185689
 10
8.0433976886
 20
19.9775855891
 10
7.2581129033
 20
19.5779167979
 10
6.5335142063
 20
19.1417155848
 10
5.8746841368
 20
18.6720415879
 10
5.2862439144
 20
18.1721892329
 10
4.7723210243
 20
17.6456646248
 10
4.3365202666
 20
17.0961609554
 10
3.9818984702
 20
16.5275325983
 10
3.7109430525
 20
15.9437680726
 10
3.5255545708
 20
15.3489620673
 10
3.4270333923
 20
14.747286719
 10
3.4160705721
 20
14.1429623479
 10
3.4927430067
 20
13.5402278555
 10
3.6565128939
 20
12.9433109909
 10
3.9062315057
 20
12.3563986973
 10
4.2401472455
 20
11.7836077425
 10
4.6559179342
 20
11.2289558437
 10
5.1506272391
 20
10.6963334853
 10
5.7208051301
 20
10.1894766305
 10
6.3624522188
 20
9.7119405161
 10
7.0710678119
 20
9.2670747146
  0
LWPOLYLINE
  5
77
330
1F
100
AcDbEntity
  8
0
  6
Continuous
 62
     7
370
    25
100
AcDbPolyline
 90
      143
 70
   128
 43
0.0
 10
-31.8198051534
 20
-13.1841483605
 10
-30.3811642979
 20
-13.9786995111
 10
-28.8830508866
 20
-14.7357367531
 10
-27.3283975468
 20
-15.4537781506
 10
-25.7202475855
 20
-16.1314181038
 10
-24.0617490317
 20
-16.7673301007
 10
-22.3561484742
 20
-17.3602693136
 10
-20.6067847062
 20
-17.9090750363
 10
-18.8170821895
 20
-18.4126729558
 10
-16.9905443508
 20
-18.8700772554
 10
-15.1307467236
 20
-19.2803925448
 10
-13.2413299492
 20
-19.6428156125
 10
-11.3259926495
 20
-19.9566369985
 10
-9.3884841874
 20
-20.2212423824
 10
-7.4325973266
 20
-20.436113787
 10
-5.4621608075
 20
-20.6008305913
 10
-3.4810318522
 20
-20.7150703544
 10
-1.4930886135
 20
-20.7786094467
 10
0.4977774163
 20
-20.7913234874
 10
2.4876690234
 20
-20.7531875882
 10
4.4726909016
 20
-20.6642764018
 10
6.4489572773
 20
-20.5247639762
 10
8.4125995163
 20
-20.3349234133
 10
10.3597736966
 20
-20.0951263351
 10
12.2866681335
 20
-19.8058421556
 10
14.1895108405
 20
-19.4676371621
 10
16.0645769137
 20
-19.0811734069
 10
17.9081958232
 20
-18.6472074107
 10
19.7167585984
 20
-18.1665886826
 10
21.4867248928
 20
-17.6402580562
 10
23.2146299141
 20
-17.0692458483
 10
24.8970912073
 20
-16.4546698423
 10
26.5308152752
 20
-15.7977330996
 10
28.1126040263
 20
-15.0997216046
 10
29.6393610349
 20
-14.3620017476
 10
31.1080976024
 20
-13.5860176499
 10
32.515938608
 20
-12.7732883367
 10
33.8601281368
 20
-11.925404764
 10
35.1380348748
 20
-11.0440267036
 10
36.3471572593
 20
-10.1308794945
 10
37.4851283767
 20
-9.1877506651
 10
38.549720595
 20
-8.2164864346
 10
39.5388499249
 20
-7.2189880981
 10
40.4505800993
 20
-6.1972083055
 10
41.2831263637
 20
-5.1531472389
 10
42.0348589695
 20
-4.0888486967
 10
42.7043063649
 20
-3.0063960933
 10
43.2901580752
 20
-1.9079083805
 10
43.7912672682
 20
-0.7955358996
 10
44.2066529991
 20
0.328543828
 10
44.5355021307
 20
1.4621303635
 10
44.7771709256
 20
2.603004658
 10
44.9311863056
 20
3.7489333965
 10
44.9972467785
 20
4.8976733697
 10
44.9752230277
 20
6.0469758651
 10
44.8651581658
 20
7.1945910691
 10
44.66726765
 20
8.3382724711
 10
44.3819388601
 20
9.475781261
 10
44.0097303407
 20
10.604890712
 10
43.5513707075
 20
11.7233905392
 10
43.007757221
 20
12.8290912268
 10
42.37995403
 20
13.9198283137
 10
41.6691900889
 20
14.9934666308
 10
40.8768567514
 20
16.0479044808
 10
40.0045050472
 20
17.081077752
 10
39.0538426458
 20
18.0909639592
 10
38.0267305134
 20
19.0755862027
 10
36.9251792703
 20
20.0330170384
 10
35.7513452548
 20
20.9613822502
 10
34.507526302
 20
21.8588645198
 10
33.1961572461
 20
22.7237069835
 10
31.8198051534
 20
23.5542166715
 10
30.3811642979
 20
24.3487678221
 10
28.8830508866
 20
25.1058050641
 10
27.3283975468
 20
25.8238464616
 10
25.7202475855
 20
26.5014864148
 10
24.0617490317
 20
27.1373984116
 10
22.3561484742
 20
27.7303376246
 10
20.6067847062
 20
28.2791433473
 10
18.8170821895
 20
28.7827412667
 10
16.9905443508
 20
29.2401455663
 10
15.1307467236
 20
29.6504608558
 10
13.2413299492
 20
30.0128839235
 10
11.3259926495
 20
30.3267053094
 10
9.3884841874
 20
30.5913106934
 10
7.4325973266
 20
30.8061820979
 10
5.4621608075
 20
30.9708989022
 10
3.4810318522
 20
31.0851386654
 10
1.4930886135
 20
31.1486777577
 10
-0.4977774163
 20
31.1613917984
 10
-2.4876690234
 20
31.1232558991
 10
-4.4726909016
 20
31.0343447128
 10
-6.4489572773
 20
30.8948322871
 10
-8.4125995163
 20
30.7049917243
 10
-10.3597736966
 20
30.4651946461
 10
-12.2866681335
 20
30.1759104665
 10
-14.1895108405
 20
29.8377054731
 10
-16.0645769137
 20
29.4512417178
 10
-17.9081958232
 20
29.0172757217
 10
-19.7167585984
 20
28.5366569935
 10
-21.4867248928
 20
28.0103263671
 10
-23.2146299141
 20
27.4393141593
 10
-24.8970912073
 20
26.8247381533
 10
-26.5308152752
 20
26.1678014105
 10
-28.1126040263
 20
25.4697899155
 10
-29.6393610349
 20
24.7320700585
 10
-31.1080976024
 20
23.9560859608
 10
-32.515938608
 20
23.1433566477
 10
-33.8601281368
 20
22.295473075
 10
-35.1380348748
 20
21.4140950146
 10
-36.3471572593
 20
20.5009478054
 10
-37.4851283767
 20
19.5578189761
 10
-38.549720595
 20
18.5865547455
 10
-39.5388499249
 20
17.589056409
 10
-40.4505800993
 20
16.5672766165
 10
-41.2831263637
 20
15.5232155498
 10
-42.0348589695
 20
14.4589170076
 10
-42.7043063649
 20
13.3764644042
 10
-43.2901580752
 20
12.2779766914
 10
-43.7912672682
 20
11.1656042105
 10
-44.2066529991
 20
10.0415244829
 10
-44.5355021307
 20
8.9079379474
 10
-44.7771709256
 20
7.7670636529
 10
-44.9311863056
 20
6.6211349144
 10
-44.9972467785
 20
5.4723949413
 10
-44.9752230277
 20
4.3230924459
 10
-44.8651581658
 20
3.1754772418
 10
-44.66726765
 20
2.0317958398
 10
-44.3819388601
 20
0.8942870499
 10
-44.0097303407
 20
-0.234822401
 10
-43.5513707075
 20
-1.3533222283
 10
-43.007757221
 20
-2.4590229158
 10
-42.37995403
 20
-3.5497600027
 10
-41.6691900889
 20
-4.6233983199
 10
-40.8768567514
 20
-5.6778361699
 10
-40.0045050472
 20
-6.711009441
 10
-39.0538426458
 20
-7.7208956482
 10
-38.0267305134
 20
-8.7055178918
 10
-36.9251792703
 20
-9.6629487274
 10
-35.7513452548
 20
-10.5913139393
 10
-34.507526302
 20
-11.4887962089
 10
-33.1961572461
 20
-12.3536386725
 10
-31.8198051534
 20
-13.1841483605
  0
LWPOLYLINE
  5
78
330
1F
100
AcDbEntity
  8
0
  6
Continuous
 62
     7
370
    25
100
AcDbPolyline
 90
       76
 70
   128
 43
0.0
 10
-3.01540625
 20
-12.4639015252
 10
-2.2447925817
 20
-12.8729765997
 10
-1.4175861395
 20
-13.2433915795
 10
-0.5395891821
 20
-13.5725482696
 10
0.3830397727
 20
-13.8581378725
 10
1.3438291455
 20
-14.0981571821
 10
2.3360396893
 20
-14.2909226355
 10
3.3527117601
 20
-14.4350821216
 10
4.3867141336
 20
-14.5296244651
 10
5.4307940263
 20
-14.5738865194
 10
6.4776279678
 20
-14.5675578181
 10
7.5198731702
 20
-14.5106827523
 10
8.5502190323
 20
-14.4036602599
 10
9.561438418
 20
-14.2472410267
 10
10.54643835
 20
-14.0425222212
 10
11.4983097616
 20
-13.7909397989
 10
12.4103759585
 20
-13.4942584295
 10
13.2762394519
 20
-13.1545591198
 10
14.0898268314
 20
-12.7742246163
 10
14.845431366
 20
-12.3559226923
 10
15.537753033
 20
-11.9025874353
 10
16.1619356932
 20
-11.4173986664
 10
16.7136011538
 20
-10.9037596361
 10
17.1888798779
 20
-10.3652731532
 10
17.5844381267
 20
-9.8057163135
 10
17.8975013434
 20
-9.2290140062
 10
18.1258736144
 20
-8.6392113836
 10
18.2679530723
 20
-8.0404454874
 10
18.3227431319
 20
-7.43691623
 10
18.2898594801
 20
-6.8328569356
 10
18.1695327722
 20
-6.2325046462
 10
17.9626070137
 20
-5.6400704016
 10
17.6705336399
 20
-5.0597097024
 10
17.2953613359
 20
-4.495493362
 10
16.8397216656
 20
-3.9513789526
 10
16.3068106141
 20
-3.4311830459
 10
15.7003661695
 20
-2.9385544423
 10
15.0246421038
 20
-2.4769485775
 10
14.2843781358
 20
-2.0496032851
 10
13.4847666855
 20
-1.6595160852
 10
12.6314164525
 20
-1.3094231593
 10
11.7303130757
 20
-1.0017801576
 10
10.7877771477
 20
-0.7387449749
 10
9.810419881
 20
-0.5221626138
 10
8.8050967345
 20
-0.3535522441
 10
7.7788593278
 20
-0.2340965464
 10
6.7389059789
 20
-0.1646334165
 10
5.6925312134
 20
-0.1456500884
 10
4.6470745983
 20
-0.1772797165
 10
3.6098692608
 20
-0.2593004417
 10
2.588190451
 20
-0.3911369476
 10
1.5892045117
 20
-0.5718644957
 10
0.6199186116
 20
-0.8002154121
 10
-0.3128684054
 20
-1.0745879794
 10
-1.2026137083
 20
-1.3930576709
 10
-2.0430763733
 20
-1.7533906508
 10
-2.8283611586
 20
-2.1530594419
 10
-3.5529598556
 20
-2.589260655
 10
-4.2117899251
 20
-3.0589346519
 10
-4.8002301475
 20
-3.5587870069
 10
-5.3141530375
 20
-4.085311615
 10
-5.7499537953
 20
-4.6348152844
 10
-6.1045755916
 20
-5.2034436416
 10
-6.3755310094
 20
-5.7872081672
 10
-6.5609194911
 20
-6.3820141725
 10
-6.6594406696
 20
-6.9836895208
 10
-6.6704034898
 20
-7.5880138919
 10
-6.5937310552
 20
-8.1907483844
 10
-6.429961168
 20
-8.7876652489
 10
-6.1802425562
 20
-9.3745775426
 10
-5.8463268164
 20
-9.9473684973
 10
-5.4305561277
 20
-10.5020203962
 10
-4.9358468227
 20
-11.0346427545
 10
-4.3656689318
 20
-11.5414996093
 10
-3.7240218431
 20
-12.0190357238
 10
-3.01540625
 20
-12.4639015252
  0
LWPOLYLINE
  5
79
330
1F
100
AcDbEntity
  8
0
  6
Continuous
 62
     7
370
    25
100
AcDbPolyline
 90
       48
 70
   128
 43
0.0
 10
-3.5355339059
 20
3.1440138759
 10
-3.0327475128
 20
2.8901835246
 10
-2.4758416685
 20
2.6773048372
 10
-1.874754371
 20
2.5091766389
 10
-1.2402120373
 20
2.3887991813
 10
-0.5835380904
 20
2.3183206031
 10
0.0835491075
 20
2.2989985962
 10
0.7491453697
 20
2.3311779622
 10
1.4013731149
 20
2.4142844595
 10
2.0285933238
 20
2.5468350509
 10
2.6196132367
 20
2.7264643677
 10
3.1638860893
 20
2.9499669207
 10
3.6516993197
 20
3.2133543014
 10
4.0743478893
 20
3.5119263558
 10
4.4242896242
 20
3.8403550585
 10
4.695279806
 20
4.1927795916
 10
4.8824826084
 20
4.5629109309
 10
4.982557393
 20
4.9441440739
 10
4.9937183229
 20
5.329675906
 10
4.915766231
 20
5.7126266028
 10
4.7500921743
 20
6.0861623997
 10
4.4996526101
 20
6.4436175419
 10
4.1689166386
 20
6.7786132336
 10
3.7637862509
 20
7.085171469
 10
3.2914910083
 20
7.357821709
 10
2.7604590308
 20
7.5916985036
 10
2.1801665964
 20
7.782628316
 10
1.5609690375
 20
7.927203999
 10
0.9139159491
 20
8.0228455961
 10
0.2505540089
 20
8.0678463809
 10
-0.4172790734
 20
8.0614033132
 10
-1.0776658008
 20
8.0036313698
 10
-1.7188215565
 20
7.8955614923
 10
-2.3293049008
 20
7.7391221903
 10
-2.8982217439
 20
7.5371051267
 10
-3.4154197514
 20
7.293115301
 10
-3.8716695125
 20
7.0115067173
 10
-4.2588292394
 20
6.6973046874
 10
-4.5699900576
 20
6.3561161541
 10
-4.799599295
 20
5.9940296348
 10
-4.9435595693
 20
5.617506572
 10
-4.9993019059
 20
5.2332660286
 10
-4.9658315816
 20
4.8481647864
 10
-4.8437458751
 20
4.469074986
 10
-4.6352234087
 20
4.1027614939
 10
-4.3439852707
 20
3.7557611832
 10
-3.9752286127
 20
3.4342662825
 10
-3.5355339059
 20
3.1440138759
  0
LWPOLYLINE
  5
7A
330
1F
100
AcDbEntity
  8
0
  6
Continuous
 62
     7
370
    25
100
AcDbPolyline
 90
       55
 70
   128
 43
0.0
 10
-31.8198051534
 20
-18.369182516
 10
-30.3811642979
 20
-19.1637336666
 10
-28.8830508866
 20
-19.9207709086
 10
-27.3283975468
 20
-20.6388123061
 10
-25.7202475855
 20
-21.3164522593
 10
-24.0617490317
 20
-21.9523642562
 10
-22.3561484742
 20
-22.5453034691
 10
-20.6067847062
 20
-23.0941091918
 10
-18.8170821895
 20
-23.5977071112
 10
-16.9905443508
 20
-24.0551114109
 10
-15.1307467236
 20
-24.4654267003
 10
-13.2413299492
 20
-24.827849768
 10
-11.3259926495
 20
-25.1416711539
 10
-9.3884841874
 20
-25.4062765379
 10
-7.4325973266
 20
-25.6211479425
 10
-5.4621608075
 20
-25.7858647468
 10
-3.4810318522
 20
-25.9001045099
 10
-1.4930886135
 20
-25.9636436022
 10
0.4977774163
 20
-25.9763576429
 10
2.4876690234
 20
-25.9382217437
 10
4.4726909016
 20
-25.8493105573
 10
6.4489572773
 20
-25.7097981316
 10
8.4125995163
 20
-25.5199575688
 10
10.3597736966
 20
-25.2801604906
 10
12.2866681335
 20
-24.9908763111
 10
14.1895108405
 20
-24.6526713176
 10
16.0645769137
 20
-24.2662075623
 10
17.9081958232
 20
-23.8322415662
 10
19.7167585984
 20
-23.3516228381
 10
21.4867248928
 20
-22.8252922116
 10
23.2146299141
 20
-22.2542800038
 10
24.8970912073
 20
-21.6397039978
 10
26.5308152752
 20
-20.9827672551
 10
28.1126040263
 20
-20.28475576
 10
29.6393610349
 20
-19.547035903
 10
31.1080976024
 20
-18.7710518053
 10
32.515938608
 20
-17.9583224922
 10
33.8601281368
 20
-17.1104389195
 10
35.1380348748
 20
-16.2290608591
 10
36.3471572593
 20
-15.31591365
 10
37.4851283767
 20
-14.3727848206
 10
38.549720595
 20
-13.40152059
 10
39.5388499249
 20
-12.4040222536
 10
40.4505800993
 20
-11.382242461
 10
41.2831263637
 20
-10.3381813944
 10
42.0348589695
 20
-9.2738828521
 10
42.7043063649
 20
-8.1914302487
 10
43.2901580752
 20
-7.0929425359
 10
43.7912672682
 20
-5.9805700551
 10
44.2066529991
 20
-4.8564903274
 10
44.5355021307
 20
-3.7229037919
 10
44.7771709256
 20
-2.5820294974
 10
44.9311863056
 20
-1.436100759
 10
44.9972467785
 20
-0.2873607858
 10
45.0
 20
0.0
  0
LWPOLYLINE
  5
7B
330
1F
100
AcDbEntity
  8
0
  6
Continuous
 62
     7
370
    25
100
AcDbPolyline
 90
       19
 70
   128
 43
0.0
 10
-45.0
 20
0.0
 10
-44.9752230277
 20
-0.8619417096
 10
-44.8651581658
 20
-2.0095569136
 10
-44.66726765
 20
-3.1532383156
 10
-44.3819388601
 20
-4.2907471055
 10
-44.0097303407
 20
-5.4198565565
 10
-43.5513707075
 20
-6.5383563837
 10
-43.007757221
 20
-7.6440570713
 10
-42.37995403
 20
-8.7347941582
 10
-41.6691900889
 20
-9.8084324754
 10
-40.8768567514
 20
-10.8628703253
 10
-40.0045050472
 20
-11.8960435965
 10
-39.0538426458
 20
-12.9059298037
 10
-38.0267305134
 20
-13.8905520473
 10
-36.9251792703
 20
-14.8479828829
 10
-35.7513452548
 20
-15.7763480947
 10
-34.507526302
 20
-16.6738303644
 10
-33.1961572461
 20
-17.538672828
 10
-31.8198051534
 20
-18.369182516
  0
LWPOLYLINE
  5
7C
330
1F
100
AcDbEntity
  8
0
  6
Continuous
 62
     7
370
    25
100
AcDbPolyline
 90
       31
 70
   128
 43
0.0
 10
17.4888558706
 20
-9.9538679041
 10
17.2953613359
 20
-9.6805275175
 10
16.8397216656
 20
-9.1364131081
 10
16.3068106141
 20
-8.6162172014
 10
15.7003661695
 20
-8.1235885978
 10
15.0246421038
 20
-7.661982733
 10
14.2843781358
 20
-7.2346374406
 10
13.4847666855
 20
-6.8445502407
 10
12.6314164525
 20
-6.4944573148
 10
11.7303130757
 20
-6.1868143131
 10
10.7877771477
 20
-5.9237791303
 10
9.810419881
 20
-5.7071967693
 10
8.8050967345
 20
-5.5385863996
 10
7.7788593278
 20
-5.4191307019
 10
6.7389059789
 20
-5.349667572
 10
5.6925312134
 20
-5.3306842439
 10
4.6470745983
 20
-5.362313872
 10
3.6098692608
 20
-5.4443345972
 10
2.588190451
 20
-5.576171103
 10
1.5892045117
 20
-5.7568986511
 10
0.6199186116
 20
-5.9852495676
 10
-0.3128684054
 20
-6.2596221348
 10
-1.2026137083
 20
-6.5780918264
 10
-2.0430763733
 20
-6.9384248062
 10
-2.8283611586
 20
-7.3380935974
 10
-3.5529598556
 20
-7.7742948105
 10
-4.2117899251
 20
-8.2439688073
 10
-4.8002301475
 20
-8.7438211624
 10
-5.3141530375
 20
-9.2703457705
 10
-5.7499537953
 20
-9.8198494399
 10
-5.841998841
 20
-9.9538679041
  0
LWPOLYLINE
  5
7D
330
1F
100
AcDbEntity
  8
0
  6
Continuous
 62
     7
370
    25
100
AcDbPolyline
 90
       31
 70
   128
 43
0.0
 10
-10.0679037357
 20
5.9543108015
 10
-10.2613982705
 20
6.2276511881
 10
-10.7170379407
 20
6.7717655975
 10
-11.2499489922
 20
7.2919615043
 10
-11.8563934368
 20
7.7845901079
 10
-12.5321175025
 20
8.2461959726
 10
-13.2723814705
 20
8.673541265
 10
-14.0719929208
 20
9.0636284649
 10
-14.9253431538
 20
9.4137213908
 10
-15.8264465306
 20
9.7213643925
 10
-16.7689824586
 20
9.9843995753
 10
-17.7463397253
 20
10.2009819363
 10
-18.7516628718
 20
10.369592306
 10
-19.7779002785
 20
10.4890480038
 10
-20.8178536274
 20
10.5585111336
 10
-21.864228393
 20
10.5774944617
 10
-22.909685008
 20
10.5458648336
 10
-23.9468903455
 20
10.4638441084
 10
-24.9685691553
 20
10.3320076026
 10
-25.9675550946
 20
10.1512800545
 10
-26.9368409948
 20
9.922929138
 10
-27.8696280117
 20
9.6485565708
 10
-28.7593733147
 20
9.3300868792
 10
-29.5998359796
 20
8.9697538994
 10
-30.3851207649
 20
8.5700851082
 10
-31.1097194619
 20
8.1338838952
 10
-31.7685495314
 20
7.6642098983
 10
-32.3569897538
 20
7.1643575432
 10
-32.8709126439
 20
6.6378329351
 10
-33.3067134016
 20
6.0883292657
 10
-33.3987584473
 20
5.9543108015
  0
LWPOLYLINE
  5
7F
330
1F
100
AcDbEntity
  8
0
  6
Continuous
 62
     7
370
    25
100
AcDbPolyline
 90
       31
 70
   128
 43
0.0
 10
27.5753299325
 20
11.7771083357
 10
27.3818353977
 20
12.0504487223
 10
26.9261957275
 20
12.5945631317
 10
26.393284676
 20
13.1147590385
 10
25.7868402314
 20
13.6073876421
 10
25.1111161657
 20
14.0689935068
 10
24.3708521977
 20
14.4963387992
 10
23.5712407474
 20
14.8864259991
 10
22.7178905144
 20
15.236518925
 10
21.8167871376
 20
15.5441619267
 10
20.8742512096
 20
15.8071971095
 10
19.8968939429
 20
16.0237794705
 10
18.8915707964
 20
16.1923898402
 10
17.8653333897
 20
16.311845538
 10
16.8253800408
 20
16.3813086678
 10
15.7790052752
 20
16.4002919959
 10
14.7335486602
 20
16.3686623678
 10
13.6963433227
 20
16.2866416426
 10
12.6746645129
 20
16.1548051368
 10
11.6756785736
 20
15.9740775887
 10
10.7063926734
 20
15.7457266722
 10
9.7736056565
 20
15.471354105
 10
8.8838603535
 20
15.1528844134
 10
8.0433976886
 20
14.7925514336
 10
7.2581129033
 20
14.3928826424
 10
6.5335142063
 20
13.9566814294
 10
5.8746841368
 20
13.4870074325
 10
5.2862439144
 20
12.9871550774
 10
4.7723210243
 20
12.4606304693
 10
4.3365202666
 20
11.9111267999
 10
4.2444752209
 20
11.7771083357
  0
LINE
  5
80
330
1F
100
AcDbEntity
  8
0
  6
Continuous
 62
     7
370
    25
100
AcDbLine
 10
45.0
 20
0.0
 30
0.0
 11
45.0
 21
5.1850341555
 31
0.0
  0
LINE
  5
81
330
1F
100
AcDbEntity
  8
0
  6
Continuous
 62
     7
370
    25
100
AcDbLine
 10
-45.0
 20
5.1850341555
 30
0.0
 11
-45.0
 21
0.0
 31
0.0
  0
ARC
  5
82
330
1F
100
AcDbEntity
  8
0
  6
Continuous
 62
     7
370
    25
100
AcDbCircle
 10
0.0
 20
-5.4088013845
 30
0.0
 40
8.297788411853375
100
AcDbArc
 50
74.6379768843
 51
105.3620231157
  0
MTEXT
  5
8D
330
1F
100
AcDbEntity
  8
0
  6
Continuous
 62
     7
100
AcDbMText
 10
-45.0
 20
-26.9959240346
 30
0.0
 40
4.83362
 41
0.0
 71
     1
 72
     1
  1
SOLIDWORKS Educational Product.
  7
SLDTEXTSTYLE0
 73
     1
 44
1.0
  0
MTEXT
  5
8E
330
1F
100
AcDbEntity
  8
0
  6
Continuous
 62
     7
100
AcDbMText
 10
-45.0
 20
-34.2463540346
 30
0.0
 40
4.83362
 41
0.0
 71
     1
 72
     1
  1
For Instructional Use Only.
  7
SLDTEXTSTYLE0
 73
     1
 44
1.0
  0
CIRCLE
  5
83
330
1B
100
AcDbEntity
 67
     1
  8
0
  6
Continuous
 62
     7
370
    25
100
AcDbCircle
 10
-19.4855715852
 20
-11.25
 30
0.0
 40
12.49999999999997
  0
CIRCLE
  5
84
330
1B
100
AcDbEntity
 67
     1
  8
0
  6
Continuous
 62
     7
370
    25
100
AcDbCircle
 10
0.0
 20
22.5
 30
0.0
 40
12.49999999999998
  0
CIRCLE
  5
85
330
1B
100
AcDbEntity
 67
     1
  8
0
  6
Continuous
 62
     7
370
    25
100
AcDbCircle
 10
0.0
 20
0.0
 30
0.0
 40
45.00000000000006
  0
CIRCLE
  5
86
330
1B
100
AcDbEntity
 67
     1
  8
0
  6
Continuous
 62
     7
370
    25
100
AcDbCircle
 10
19.4855715851
 20
-11.25
 30
0.0
 40
12.49999999999998
  0
CIRCLE
  5
87
330
1B
100
AcDbEntity
 67
     1
  8
0
  6
Continuous
 62
     7
370
    25
100
AcDbCircle
 10
0.0
 20
0.0
 30
0.0
 40
5.000000000000003
  0
VIEWPORT
  5
88
330
1B
100
AcDbEntity
 67
     1
  8
0
100
AcDbViewport
 10
0.0
 20
0.0
 30
0.0
 40
205.6
 41
156.0
 68
     1
 69
     1
 12
0.0
 22
2.5925170777
 13
0.0
 23
0.0
 14
10.0
 24
10.0
 15
10.0
 25
10.0
 16
0.0
 26
0.0
 36
1.0
 17
0.0
 27
0.0
 37
0.0
 42
50.0
 43
0.0
 44
0.0
 45
69.6536964981
 50
0.0
 51
0.0
 72
   100
 90
   557152
  1

281
     0
 71
     1
 74
     0
110
0.0
120
0.0
130
0.0
111
1.0
121
0.0
131
0.0
112
0.0
122
1.0
132
0.0
 79
     0
146
0.0
  0
MTEXT
  5
8B
330
1B
100
AcDbEntity
 67
     1
  8
0
  6
Continuous
 62
     7
100
AcDbMText
 10
-45.0
 20
-46.0195663917
 30
0.0
 40
4.83362
 41
0.0
 71
     1
 72
     1
  1
SOLIDWORKS Educational Product.
  7
SLDTEXTSTYLE0
 73
     1
 44
1.0
  0
MTEXT
  5
8C
330
1B
100
AcDbEntity
 67
     1
  8
0
  6
Continuous
 62
     7
100
AcDbMText
 10
-45.0
 20
-53.2699963917
 30
0.0
 40
4.83362
 41
0.0
 71
     1
 72
     1
  1
For Instructional Use Only.
  7
SLDTEXTSTYLE0
 73
     1
 44
1.0
  0
ENDSEC
  0
SECTION
  2
OBJECTS
  0
DICTIONARY
  5
C
330
0
100
AcDbDictionary
281
     1
  3
ACAD_GROUP
350
D
  3
ACAD_LAYOUT
350
1A
  3
ACAD_MLINESTYLE
350
17
  3
ACAD_PLOTSETTINGS
350
19
  3
ACAD_PLOTSTYLENAME
350
E
  3
ACAD_SCALELIST
350
47
  0
DICTIONARY
  5
D
102
{ACAD_REACTORS
330
C
102
}
330
C
100
AcDbDictionary
281
     1
  0
DICTIONARY
  5
1A
102
{ACAD_REACTORS
330
C
102
}
330
C
100
AcDbDictionary
281
     1
  3
_Top
350
1E
  3
Layout2
350
26
  3
Model
350
22
  0
DICTIONARY
  5
17
102
{ACAD_REACTORS
330
C
102
}
330
C
100
AcDbDictionary
281
     1
  3
Standard
350
18
  0
DICTIONARY
  5
19
102
{ACAD_REACTORS
330
C
102
}
330
C
100
AcDbDictionary
281
     1
  0
ACDBDICTIONARYWDFLT
  5
E
102
{ACAD_REACTORS
330
C
102
}
330
C
100
AcDbDictionary
281
     1
  3
Normal
350
F
100
AcDbDictionaryWithDefault
340
F
  0
DICTIONARY
  5
47
102
{ACAD_REACTORS
330
C
102
}
330
C
100
AcDbDictionary
281
     1
  3
A0
350
48
  3
A1
350
49
  3
A2
350
4A
  3
A3
350
4B
  3
A4
350
4C
  3
A5
350
4D
  3
A6
350
4E
  3
A7
350
4F
  3
A8
350
50
  3
A9
350
51
  3
B0
350
52
  3
B1
350
53
  3
B2
350
54
  3
B3
350
55
  3
B4
350
56
  3
B5
350
57
  3
B6
350
58
  3
B7
350
59
  3
B8
350
5A
  3
B9
350
5B
  3
C0
350
5C
  3
C1
350
5D
  3
C2
350
5E
  3
C3
350
5F
  3
C4
350
60
  3
C5
350
61
  3
C6
350
62
  3
C7
350
63
  3
C8
350
64
  3
C9
350
65
  3
D0
350
66
  3
D1
350
67
  3
D2
350
68
  0
LAYOUT
  5
1E
102
{ACAD_REACTORS
330
1A
102
}
330
1A
100
AcDbPlotSettings
  1

  2
none_device
  4
ISO_A4_(210.00_x_297.00_MM)
  6

 40
7.5
 41
20.0
 42
7.5
 43
20.0
 44
210.0
 45
297.0
 46
0.0
 47
0.0
 48
0.0
 49
0.0
140
0.0
141
0.0
142
1.0
143
0.4615384615
 70
   688
 72
     1
 73
     1
 74
     1
  7

 75
     0
147
2.1666666667
148
45.0
149
45.0
100
AcDbLayout
  1
_Top
 70
     1
 71
     1
 10
-54.2307692308
 20
-48.4615384615
 11
82.8461538462
 21
48.4615384615
 12
0.0
 22
0.0
 32
0.0
 14
-45.0
 24
-45.0
 34
0.0
 15
45.0
 25
45.0
 35
0.0
146
0.0
 13
0.0
 23
0.0
 33
0.0
 16
1.0
 26
0.0
 36
0.0
 17
0.0
 27
1.0
 37
0.0
 76
     0
330
1B
331
88
  0
LAYOUT
  5
26
102
{ACAD_REACTORS
330
1A
102
}
330
1A
100
AcDbPlotSettings
  1

  2
none_device
  4

  6

 40
0.0
 41
0.0
 42
0.0
 43
0.0
 44
0.0
 45
0.0
 46
0.0
 47
0.0
 48
0.0
 49
0.0
140
0.0
141
0.0
142
1.0
143
1.0
 70
   688
 72
     1
 73
     0
 74
     5
  7

 75
    16
147
1.0
148
0.0
149
0.0
100
AcDbLayout
  1
Layout2
 70
     1
 71
     2
 10
0.0
 20
0.0
 11
0.0
 21
0.0
 12
0.0
 22
0.0
 32
0.0
 14
0.0
 24
0.0
 34
0.0
 15
0.0
 25
0.0
 35
0.0
146
0.0
 13
0.0
 23
0.0
 33
0.0
 16
1.0
 26
0.0
 36
0.0
 17
0.0
 27
1.0
 37
0.0
 76
     0
330
23
  0
LAYOUT
  5
22
102
{ACAD_REACTORS
330
1A
102
}
330
1A
100
AcDbPlotSettings
  1

  2
none_device
  4
ANSI_A_(11.00_x_8.50_Inches)
  6

 40
6.35
 41
19.05
 42
6.35000508
 43
19.05000254
 44
279.4
 45
215.9
 46
133.34999746
 47
80.9321567433
 48
0.0
 49
0.0
140
0.0
141
0.0
142
0.121
143
1.0
 70
  1696
 72
     0
 73
     0
 74
     0
  7

 75
     0
147
0.0179189148
148
-1300.4909072572
149
0.0
100
AcDbLayout
  1
Model
 70
     1
 71
     0
 10
0.0
 20
0.0
 11
420.0
 21
297.0
 12
0.0
 22
0.0
 32
0.0
 14
-45.0
 24
-25.9763576429
 34
0.0
 15
45.0
 25
31.1613917984
 35
0.0
146
0.0
 13
0.0
 23
0.0
 33
0.0
 16
1.0
 26
0.0
 36
0.0
 17
0.0
 27
1.0
 37
0.0
 76
     0
330
1F
331
29
  0
MLINESTYLE
  5
18
102
{ACAD_REACTORS
330
17
102
}
330
17
100
AcDbMlineStyle
  2
Standard
 70
     0
  3

 62
   256
 51
90.0
 52
90.0
 71
     2
 49
0.5
 62
   256
  6
BYLAYER
 49
-0.5
 62
   256
  6
BYLAYER
  0
ACDBPLACEHOLDER
  5
F
102
{ACAD_REACTORS
330
E
102
}
330
E
  0
SCALE
  5
48
102
{ACAD_REACTORS
330
47
102
}
330
47
100
AcDbScale
 70
     0
300
1:1
140
1.0
141
1.0
290
     1
  0
SCALE
  5
49
102
{ACAD_REACTORS
330
47
102
}
330
47
100
AcDbScale
 70
     0
300
1:2
140
1.0
141
2.0
290
     0
  0
SCALE
  5
4A
102
{ACAD_REACTORS
330
47
102
}
330
47
100
AcDbScale
 70
     0
300
1:4
140
1.0
141
4.0
290
     0
  0
SCALE
  5
4B
102
{ACAD_REACTORS
330
47
102
}
330
47
100
AcDbScale
 70
     0
300
1:5
140
1.0
141
5.0
290
     0
  0
SCALE
  5
4C
102
{ACAD_REACTORS
330
47
102
}
330
47
100
AcDbScale
 70
     0
300
1:8
140
1.0
141
8.0
290
     0
  0
SCALE
  5
4D
102
{ACAD_REACTORS
330
47
102
}
330
47
100
AcDbScale
 70
     0
300
1:10
140
1.0
141
10.0
290
     0
  0
SCALE
  5
4E
102
{ACAD_REACTORS
330
47
102
}
330
47
100
AcDbScale
 70
     0
300
1:16
140
1.0
141
16.0
290
     0
  0
SCALE
  5
4F
102
{ACAD_REACTORS
330
47
102
}
330
47
100
AcDbScale
 70
     0
300
1:20
140
1.0
141
20.0
290
     0
  0
SCALE
  5
50
102
{ACAD_REACTORS
330
47
102
}
330
47
100
AcDbScale
 70
     0
300
1:30
140
1.0
141
30.0
290
     0
  0
SCALE
  5
51
102
{ACAD_REACTORS
330
47
102
}
330
47
100
AcDbScale
 70
     0
300
1:40
140
1.0
141
40.0
290
     0
  0
SCALE
  5
52
102
{ACAD_REACTORS
330
47
102
}
330
47
100
AcDbScale
 70
     0
300
1:50
140
1.0
141
50.0
290
     0
  0
SCALE
  5
53
102
{ACAD_REACTORS
330
47
102
}
330
47
100
AcDbScale
 70
     0
300
1:100
140
1.0
141
100.0
290
     0
  0
SCALE
  5
54
102
{ACAD_REACTORS
330
47
102
}
330
47
100
AcDbScale
 70
     0
300
2:1
140
2.0
141
1.0
290
     0
  0
SCALE
  5
55
102
{ACAD_REACTORS
330
47
102
}
330
47
100
AcDbScale
 70
     0
300
4:1
140
4.0
141
1.0
290
     0
  0
SCALE
  5
56
102
{ACAD_REACTORS
330
47
102
}
330
47
100
AcDbScale
 70
     0
300
8:1
140
8.0
141
1.0
290
     0
  0
SCALE
  5
57
102
{ACAD_REACTORS
330
47
102
}
330
47
100
AcDbScale
 70
     0
300
10:1
140
10.0
141
1.0
290
     0
  0
SCALE
  5
58
102
{ACAD_REACTORS
330
47
102
}
330
47
100
AcDbScale
 70
     0
300
100:1
140
100.0
141
1.0
290
     0
  0
SCALE
  5
59
102
{ACAD_REACTORS
330
47
102
}
330
47
100
AcDbScale
 70
     0
300
1/128" = 1'-0"
140
0.0078125
141
12.0
290
     0
  0
SCALE
  5
5A
102
{ACAD_REACTORS
330
47
102
}
330
47
100
AcDbScale
 70
     0
300
1/64" = 1'-0"
140
0.015625
141
12.0
290
     0
  0
SCALE
  5
5B
102
{ACAD_REACTORS
330
47
102
}
330
47
100
AcDbScale
 70
     0
300
1/32" = 1'-0"
140
0.03125
141
12.0
290
     0
  0
SCALE
  5
5C
102
{ACAD_REACTORS
330
47
102
}
330
47
100
AcDbScale
 70
     0
300
1/16" = 1'-0"
140
0.0625
141
12.0
290
     0
  0
SCALE
  5
5D
102
{ACAD_REACTORS
330
47
102
}
330
47
100
AcDbScale
 70
     0
300
3/32" = 1'-0"
140
0.09375
141
12.0
290
     0
  0
SCALE
  5
5E
102
{ACAD_REACTORS
330
47
102
}
330
47
100
AcDbScale
 70
     0
300
1/8" = 1'-0"
140
0.125
141
12.0
290
     0
  0
SCALE
  5
5F
102
{ACAD_REACTORS
330
47
102
}
330
47
100
AcDbScale
 70
     0
300
3/16" = 1'-0"
140
0.1875
141
12.0
290
     0
  0
SCALE
  5
60
102
{ACAD_REACTORS
330
47
102
}
330
47
100
AcDbScale
 70
     0
300
1/4" = 1'-0"
140
0.25
141
12.0
290
     0
  0
SCALE
  5
61
102
{ACAD_REACTORS
330
47
102
}
330
47
100
AcDbScale
 70
     0
300
3/8" = 1'-0"
140
0.375
141
12.0
290
     0
  0
SCALE
  5
62
102
{ACAD_REACTORS
330
47
102
}
330
47
100
AcDbScale
 70
     0
300
1/2" = 1'-0"
140
0.5
141
12.0
290
     0
  0
SCALE
  5
63
102
{ACAD_REACTORS
330
47
102
}
330
47
100
AcDbScale
 70
     0
300
3/4" = 1'-0"
140
0.75
141
12.0
290
     0
  0
SCALE
  5
64
102
{ACAD_REACTORS
330
47
102
}
330
47
100
AcDbScale
 70
     0
300
1" = 1'-0"
140
1.0
141
12.0
290
     0
  0
SCALE
  5
65
102
{ACAD_REACTORS
330
47
102
}
330
47
100
AcDbScale
 70
     0
300
1-1/2" = 1'-0"
140
1.5
141
12.0
290
     0
  0
SCALE
  5
66
102
{ACAD_REACTORS
330
47
102
}
330
47
100
AcDbScale
 70
     0
300
3" = 1'-0"
140
3.0
141
12.0
290
     0
  0
SCALE
  5
67
102
{ACAD_REACTORS
330
47
102
}
330
47
100
AcDbScale
 70
     0
300
6" = 1'-0"
140
6.0
141
12.0
290
     0
  0
SCALE
  5
68
102
{ACAD_REACTORS
330
47
102
}
330
47
100
AcDbScale
 70
     0
300
1'-0" = 1'-0"
140
12.0
141
12.0
290
     0
  0
ENDSEC
  0
EOF
